<svg width="407" height="253" viewBox="0 0 407 253" fill="none" xmlns="http://www.w3.org/2000/svg">
<path d="M46.05 150.8C38.35 150.8 31.55 149.5 25.65 146.9C19.75 144.2 15.1 140.4 11.7 135.5C8.3 130.5 6.55 124.45 6.45 117.35H26.7C26.9 122.25 28.65 126.4 31.95 129.8C35.35 133.1 40 134.75 45.9 134.75C51 134.75 55.05 133.55 58.05 131.15C61.05 128.65 62.55 125.35 62.55 121.25C62.55 116.95 61.2 113.6 58.5 111.2C55.9 108.8 52.4 106.85 48 105.35C43.6 103.85 38.9 102.25 33.9 100.55C25.8 97.75 19.6 94.15 15.3 89.75C11.1 85.35 9 79.5 9 72.2C8.9 66 10.35 60.7 13.35 56.3C16.45 51.8 20.65 48.35 25.95 45.95C31.25 43.45 37.35 42.2 44.25 42.2C51.25 42.2 57.4 43.45 62.7 45.95C68.1 48.45 72.3 51.95 75.3 56.45C78.4 60.95 80.05 66.3 80.25 72.5H59.7C59.6 68.8 58.15 65.55 55.35 62.75C52.65 59.85 48.85 58.4 43.95 58.4C39.75 58.3 36.2 59.35 33.3 61.55C30.5 63.65 29.1 66.75 29.1 70.85C29.1 74.35 30.2 77.15 32.4 79.25C34.6 81.25 37.6 82.95 41.4 84.35C45.2 85.75 49.55 87.25 54.45 88.85C59.65 90.65 64.4 92.75 68.7 95.15C73 97.55 76.45 100.75 79.05 104.75C81.65 108.65 82.95 113.7 82.95 119.9C82.95 125.4 81.55 130.5 78.75 135.2C75.95 139.9 71.8 143.7 66.3 146.6C60.8 149.4 54.05 150.8 46.05 150.8ZM99.252 149V41H118.452V149H99.252ZM173.77 150.8C166.57 150.8 160.07 149.15 154.27 145.85C148.57 142.55 144.02 138 140.62 132.2C137.32 126.3 135.67 119.5 135.67 111.8C135.67 104.1 137.37 97.35 140.77 91.55C144.17 85.65 148.72 81.05 154.42 77.75C160.22 74.45 166.72 72.8 173.92 72.8C181.02 72.8 187.42 74.45 193.12 77.75C198.92 81.05 203.47 85.65 206.77 91.55C210.17 97.35 211.87 104.1 211.87 111.8C211.87 119.5 210.17 126.3 206.77 132.2C203.47 138 198.92 142.55 193.12 145.85C187.32 149.15 180.87 150.8 173.77 150.8ZM173.77 134.15C178.77 134.15 183.12 132.3 186.82 128.6C190.52 124.8 192.37 119.2 192.37 111.8C192.37 104.4 190.52 98.85 186.82 95.15C183.12 91.35 178.82 89.45 173.92 89.45C168.82 89.45 164.42 91.35 160.72 95.15C157.12 98.85 155.32 104.4 155.32 111.8C155.32 119.2 157.12 124.8 160.72 128.6C164.42 132.3 168.77 134.15 173.77 134.15ZM229.037 182V74.6H246.137L248.237 85.25C250.637 81.95 253.787 79.05 257.687 76.55C261.687 74.05 266.837 72.8 273.137 72.8C280.137 72.8 286.387 74.5 291.887 77.9C297.387 81.3 301.737 85.95 304.937 91.85C308.137 97.75 309.737 104.45 309.737 111.95C309.737 119.45 308.137 126.15 304.937 132.05C301.737 137.85 297.387 142.45 291.887 145.85C286.387 149.15 280.137 150.8 273.137 150.8C267.537 150.8 262.637 149.75 258.437 147.65C254.237 145.55 250.837 142.6 248.237 138.8V182H229.037ZM269.087 134C275.187 134 280.237 131.95 284.237 127.85C288.237 123.75 290.237 118.45 290.237 111.95C290.237 105.45 288.237 100.1 284.237 95.9C280.237 91.7 275.187 89.6 269.087 89.6C262.887 89.6 257.787 91.7 253.787 95.9C249.887 100 247.937 105.3 247.937 111.8C247.937 118.3 249.887 123.65 253.787 127.85C257.787 131.95 262.887 134 269.087 134ZM363.039 150.8C355.539 150.8 348.889 149.2 343.089 146C337.289 142.8 332.739 138.3 329.439 132.5C326.139 126.7 324.489 120 324.489 112.4C324.489 104.7 326.089 97.85 329.289 91.85C332.589 85.85 337.089 81.2 342.789 77.9C348.589 74.5 355.389 72.8 363.189 72.8C370.489 72.8 376.939 74.4 382.539 77.6C388.139 80.8 392.489 85.2 395.589 90.8C398.789 96.3 400.389 102.45 400.389 109.25C400.389 110.35 400.339 111.5 400.239 112.7C400.239 113.9 400.189 115.15 400.089 116.45H343.539C343.939 122.25 345.939 126.8 349.539 130.1C353.239 133.4 357.689 135.05 362.889 135.05C366.789 135.05 370.039 134.2 372.639 132.5C375.339 130.7 377.339 128.4 378.639 125.6H398.139C396.739 130.3 394.389 134.6 391.089 138.5C387.889 142.3 383.889 145.3 379.089 147.5C374.389 149.7 369.039 150.8 363.039 150.8ZM363.189 88.4C358.489 88.4 354.339 89.75 350.739 92.45C347.139 95.05 344.839 99.05 343.839 104.45H380.889C380.589 99.55 378.789 95.65 375.489 92.75C372.189 89.85 368.089 88.4 363.189 88.4Z" fill="#262626"/>
<path d="M10.255 242.42C8.575 242.42 7.09333 242.023 5.81 241.23C4.52667 240.437 3.52333 239.352 2.8 237.975C2.07667 236.598 1.715 235.035 1.715 233.285C1.715 231.535 2.07667 229.983 2.8 228.63C3.52333 227.253 4.52667 226.18 5.81 225.41C7.11667 224.617 8.61 224.22 10.29 224.22C11.6667 224.22 12.8683 224.488 13.895 225.025C14.945 225.562 15.7617 226.32 16.345 227.3V216.8H20.055V242H16.73L16.345 239.305C15.785 240.122 15.015 240.845 14.035 241.475C13.055 242.105 11.795 242.42 10.255 242.42ZM10.92 239.2C12.5067 239.2 13.8017 238.652 14.805 237.555C15.8317 236.458 16.345 235.047 16.345 233.32C16.345 231.57 15.8317 230.158 14.805 229.085C13.8017 227.988 12.5067 227.44 10.92 227.44C9.33333 227.44 8.02667 227.988 7 229.085C5.97333 230.158 5.46 231.57 5.46 233.32C5.46 234.463 5.69333 235.478 6.16 236.365C6.62667 237.252 7.26833 237.952 8.085 238.465C8.925 238.955 9.87 239.2 10.92 239.2ZM30.2627 242.42C28.7927 242.42 27.5794 242.175 26.6227 241.685C25.666 241.195 24.9544 240.553 24.4877 239.76C24.021 238.943 23.7877 238.057 23.7877 237.1C23.7877 235.42 24.441 234.09 25.7477 233.11C27.0544 232.13 28.921 231.64 31.3477 231.64H35.8977V231.325C35.8977 229.972 35.5244 228.957 34.7777 228.28C34.0544 227.603 33.1094 227.265 31.9427 227.265C30.916 227.265 30.0177 227.522 29.2477 228.035C28.501 228.525 28.046 229.26 27.8827 230.24H24.1727C24.2894 228.98 24.7094 227.907 25.4327 227.02C26.1794 226.11 27.1127 225.422 28.2327 224.955C29.376 224.465 30.6244 224.22 31.9777 224.22C34.4044 224.22 36.2827 224.862 37.6127 226.145C38.9427 227.405 39.6077 229.132 39.6077 231.325V242H36.3877L36.0727 239.025C35.5827 239.982 34.871 240.787 33.9377 241.44C33.0044 242.093 31.7794 242.42 30.2627 242.42ZM30.9977 239.41C32.001 239.41 32.841 239.177 33.5177 238.71C34.2177 238.22 34.7544 237.578 35.1277 236.785C35.5244 235.992 35.7694 235.117 35.8627 234.16H31.7327C30.2627 234.16 29.2127 234.417 28.5827 234.93C27.976 235.443 27.6727 236.085 27.6727 236.855C27.6727 237.648 27.9644 238.278 28.5477 238.745C29.1544 239.188 29.971 239.41 30.9977 239.41ZM50.5217 242C48.8183 242 47.465 241.592 46.4617 240.775C45.4583 239.935 44.9567 238.453 44.9567 236.33V227.755H41.9817V224.64H44.9567L45.4117 220.23H48.6667V224.64H53.5667V227.755H48.6667V236.33C48.6667 237.287 48.865 237.952 49.2617 238.325C49.6817 238.675 50.3933 238.85 51.3967 238.85H53.3917V242H50.5217ZM64.7177 242.42C63.0144 242.42 61.4977 242.047 60.1677 241.3C58.8611 240.53 57.8344 239.468 57.0877 238.115C56.3411 236.762 55.9677 235.187 55.9677 233.39C55.9677 231.57 56.3294 229.972 57.0527 228.595C57.7994 227.218 58.8261 226.145 60.1327 225.375C61.4627 224.605 63.0027 224.22 64.7527 224.22C66.4561 224.22 67.9377 224.605 69.1977 225.375C70.4577 226.122 71.4377 227.125 72.1377 228.385C72.8377 229.645 73.1877 231.033 73.1877 232.55C73.1877 232.783 73.1761 233.04 73.1527 233.32C73.1527 233.577 73.1411 233.868 73.1177 234.195H59.6077C59.7244 235.875 60.2727 237.158 61.2527 238.045C62.2561 238.908 63.4111 239.34 64.7177 239.34C65.7677 239.34 66.6427 239.107 67.3427 238.64C68.0661 238.15 68.6027 237.497 68.9527 236.68H72.6627C72.1961 238.313 71.2627 239.678 69.8627 240.775C68.4861 241.872 66.7711 242.42 64.7177 242.42ZM64.7177 227.265C63.4811 227.265 62.3844 227.638 61.4277 228.385C60.4711 229.108 59.8877 230.205 59.6777 231.675H69.4777C69.4077 230.322 68.9294 229.248 68.0427 228.455C67.1561 227.662 66.0477 227.265 64.7177 227.265ZM88.6205 242L83.5105 224.64H87.2205L90.5805 237.73L94.3605 224.64H98.4905L102.271 237.73L105.631 224.64H109.341L104.231 242H100.416L96.4255 228.35L92.4355 242H88.6205ZM114.147 221.35C113.447 221.35 112.863 221.14 112.397 220.72C111.953 220.277 111.732 219.728 111.732 219.075C111.732 218.422 111.953 217.885 112.397 217.465C112.863 217.022 113.447 216.8 114.147 216.8C114.847 216.8 115.418 217.022 115.862 217.465C116.328 217.885 116.562 218.422 116.562 219.075C116.562 219.728 116.328 220.277 115.862 220.72C115.418 221.14 114.847 221.35 114.147 221.35ZM112.292 242V224.64H116.002V242H112.292ZM127.829 242C126.126 242 124.773 241.592 123.769 240.775C122.766 239.935 122.264 238.453 122.264 236.33V227.755H119.289V224.64H122.264L122.719 220.23H125.974V224.64H130.874V227.755H125.974V236.33C125.974 237.287 126.173 237.952 126.569 238.325C126.989 238.675 127.701 238.85 128.704 238.85H130.699V242H127.829ZM134.35 242V216.8H138.06V227.44C138.643 226.437 139.448 225.655 140.475 225.095C141.525 224.512 142.68 224.22 143.94 224.22C146.016 224.22 147.65 224.873 148.84 226.18C150.03 227.487 150.625 229.435 150.625 232.025V242H146.95V232.41C146.95 229.05 145.608 227.37 142.925 227.37C141.525 227.37 140.358 227.86 139.425 228.84C138.515 229.82 138.06 231.22 138.06 233.04V242H134.35ZM165.213 221.35C164.513 221.35 163.929 221.14 163.463 220.72C163.019 220.277 162.798 219.728 162.798 219.075C162.798 218.422 163.019 217.885 163.463 217.465C163.929 217.022 164.513 216.8 165.213 216.8C165.913 216.8 166.484 217.022 166.928 217.465C167.394 217.885 167.628 218.422 167.628 219.075C167.628 219.728 167.394 220.277 166.928 220.72C166.484 221.14 165.913 221.35 165.213 221.35ZM163.358 242V224.64H167.068V242H163.358ZM171.615 242V224.64H174.905L175.185 227.685C175.722 226.612 176.503 225.772 177.53 225.165C178.58 224.535 179.782 224.22 181.135 224.22C183.235 224.22 184.88 224.873 186.07 226.18C187.283 227.487 187.89 229.435 187.89 232.025V242H184.215V232.41C184.215 229.05 182.838 227.37 180.085 227.37C178.708 227.37 177.565 227.86 176.655 228.84C175.768 229.82 175.325 231.22 175.325 233.04V242H171.615ZM199.19 242C197.486 242 196.133 241.592 195.13 240.775C194.126 239.935 193.625 238.453 193.625 236.33V227.755H190.65V224.64H193.625L194.08 220.23H197.335V224.64H202.235V227.755H197.335V236.33C197.335 237.287 197.533 237.952 197.93 238.325C198.35 238.675 199.061 238.85 200.065 238.85H202.06V242H199.19ZM213.386 242.42C211.682 242.42 210.166 242.047 208.836 241.3C207.529 240.53 206.502 239.468 205.756 238.115C205.009 236.762 204.636 235.187 204.636 233.39C204.636 231.57 204.997 229.972 205.721 228.595C206.467 227.218 207.494 226.145 208.801 225.375C210.131 224.605 211.671 224.22 213.421 224.22C215.124 224.22 216.606 224.605 217.866 225.375C219.126 226.122 220.106 227.125 220.806 228.385C221.506 229.645 221.856 231.033 221.856 232.55C221.856 232.783 221.844 233.04 221.821 233.32C221.821 233.577 221.809 233.868 221.786 234.195H208.276C208.392 235.875 208.941 237.158 209.921 238.045C210.924 238.908 212.079 239.34 213.386 239.34C214.436 239.34 215.311 239.107 216.011 238.64C216.734 238.15 217.271 237.497 217.621 236.68H221.331C220.864 238.313 219.931 239.678 218.531 240.775C217.154 241.872 215.439 242.42 213.386 242.42ZM213.386 227.265C212.149 227.265 211.052 227.638 210.096 228.385C209.139 229.108 208.556 230.205 208.346 231.675H218.146C218.076 230.322 217.597 229.248 216.711 228.455C215.824 227.662 214.716 227.265 213.386 227.265ZM225.355 242V224.64H228.645L228.925 227.685C229.462 226.612 230.243 225.772 231.27 225.165C232.32 224.535 233.522 224.22 234.875 224.22C236.975 224.22 238.62 224.873 239.81 226.18C241.023 227.487 241.63 229.435 241.63 232.025V242H237.955V232.41C237.955 229.05 236.578 227.37 233.825 227.37C232.448 227.37 231.305 227.86 230.395 228.84C229.508 229.82 229.065 231.22 229.065 233.04V242H225.355ZM252.93 242C251.226 242 249.873 241.592 248.87 240.775C247.866 239.935 247.365 238.453 247.365 236.33V227.755H244.39V224.64H247.365L247.82 220.23H251.075V224.64H255.975V227.755H251.075V236.33C251.075 237.287 251.273 237.952 251.67 238.325C252.09 238.675 252.801 238.85 253.805 238.85H255.8V242H252.93ZM261.55 221.35C260.85 221.35 260.267 221.14 259.8 220.72C259.357 220.277 259.135 219.728 259.135 219.075C259.135 218.422 259.357 217.885 259.8 217.465C260.267 217.022 260.85 216.8 261.55 216.8C262.25 216.8 262.822 217.022 263.265 217.465C263.732 217.885 263.965 218.422 263.965 219.075C263.965 219.728 263.732 220.277 263.265 220.72C262.822 221.14 262.25 221.35 261.55 221.35ZM259.695 242V224.64H263.405V242H259.695ZM276.073 242.42C274.416 242.42 272.923 242.047 271.593 241.3C270.286 240.53 269.248 239.468 268.478 238.115C267.708 236.738 267.323 235.14 267.323 233.32C267.323 231.5 267.708 229.913 268.478 228.56C269.271 227.183 270.333 226.122 271.663 225.375C272.993 224.605 274.474 224.22 276.108 224.22C277.764 224.22 279.246 224.605 280.553 225.375C281.883 226.122 282.933 227.183 283.703 228.56C284.496 229.913 284.893 231.5 284.893 233.32C284.893 235.14 284.496 236.738 283.703 238.115C282.933 239.468 281.883 240.53 280.553 241.3C279.223 242.047 277.729 242.42 276.073 242.42ZM276.073 239.235C276.959 239.235 277.776 239.013 278.523 238.57C279.293 238.127 279.911 237.473 280.378 236.61C280.844 235.723 281.078 234.627 281.078 233.32C281.078 232.013 280.844 230.928 280.378 230.065C279.934 229.178 279.328 228.513 278.558 228.07C277.811 227.627 276.994 227.405 276.108 227.405C275.221 227.405 274.393 227.627 273.623 228.07C272.876 228.513 272.269 229.178 271.803 230.065C271.336 230.928 271.103 232.013 271.103 233.32C271.103 234.627 271.336 235.723 271.803 236.61C272.269 237.473 272.876 238.127 273.623 238.57C274.369 239.013 275.186 239.235 276.073 239.235ZM288.555 242V224.64H291.845L292.125 227.685C292.661 226.612 293.443 225.772 294.47 225.165C295.52 224.535 296.721 224.22 298.075 224.22C300.175 224.22 301.82 224.873 303.01 226.18C304.223 227.487 304.83 229.435 304.83 232.025V242H301.155V232.41C301.155 229.05 299.778 227.37 297.025 227.37C295.648 227.37 294.505 227.86 293.595 228.84C292.708 229.82 292.265 231.22 292.265 233.04V242H288.555ZM310.319 242.21C309.619 242.21 309.036 241.988 308.569 241.545C308.126 241.078 307.904 240.53 307.904 239.9C307.904 239.247 308.126 238.698 308.569 238.255C309.036 237.788 309.619 237.555 310.319 237.555C311.019 237.555 311.591 237.788 312.034 238.255C312.478 238.698 312.699 239.247 312.699 239.9C312.699 240.53 312.478 241.078 312.034 241.545C311.591 241.988 311.019 242.21 310.319 242.21Z" fill="#262626"/>
</svg>
